<svg width="13" height="16" viewBox="0 0 13 16" fill="none" xmlns="http://www.w3.org/2000/svg">
<path d="M12.4583 2.38285H9.20833V1.57928C9.20833 1.22408 9.06566 0.88343 8.81171 0.632266C8.55775 0.381101 8.21331 0.239998 7.85417 0.239998H5.14583C4.78669 0.239998 4.44225 0.381101 4.18829 0.632266C3.93434 0.88343 3.79167 1.22408 3.79167 1.57928V2.38285H0.541667C0.398008 2.38285 0.260233 2.4393 0.158651 2.53976C0.0570684 2.64023 0 2.77649 0 2.91857C0 3.06065 0.0570684 3.19691 0.158651 3.29738C0.260233 3.39784 0.398008 3.45428 0.541667 3.45428H1.11719L1.76042 13.6637C1.80849 14.5627 2.50521 15.24 3.38542 15.24H9.61458C10.4992 15.24 11.182 14.5777 11.2396 13.6663L11.8828 3.45428H12.4583C12.602 3.45428 12.7398 3.39784 12.8414 3.29738C12.9429 3.19691 13 3.06065 13 2.91857C13 2.77649 12.9429 2.64023 12.8414 2.53976C12.7398 2.4393 12.602 2.38285 12.4583 2.38285ZM4.35263 13.0971H4.33333C4.19296 13.0972 4.05803 13.0434 3.95698 12.947C3.85594 12.8507 3.79667 12.7193 3.79167 12.5805L3.52083 5.08051C3.51572 4.93843 3.56788 4.80016 3.66584 4.69611C3.7638 4.59207 3.89954 4.53077 4.0432 4.52571C4.18686 4.52065 4.32667 4.57224 4.43187 4.66912C4.53707 4.76601 4.59905 4.90026 4.60417 5.04234L4.875 12.5423C4.87758 12.6127 4.86611 12.6829 4.84125 12.7489C4.81638 12.8148 4.77861 12.8753 4.7301 12.9268C4.68158 12.9784 4.62327 13.0199 4.55851 13.0491C4.49374 13.0784 4.42378 13.0947 4.35263 13.0971ZM7.04167 12.5614C7.04167 12.7035 6.9846 12.8398 6.88302 12.9402C6.78143 13.0407 6.64366 13.0971 6.5 13.0971C6.35634 13.0971 6.21857 13.0407 6.11698 12.9402C6.0154 12.8398 5.95833 12.7035 5.95833 12.5614V5.06143C5.95833 4.91935 6.0154 4.78308 6.11698 4.68262C6.21857 4.58215 6.35634 4.52571 6.5 4.52571C6.64366 4.52571 6.78143 4.58215 6.88302 4.68262C6.9846 4.78308 7.04167 4.91935 7.04167 5.06143V12.5614ZM8.125 2.38285H4.875V1.57928C4.87459 1.544 4.88132 1.50898 4.89478 1.4763C4.90825 1.44362 4.92818 1.41393 4.95342 1.38898C4.97865 1.36403 5.00867 1.34431 5.04171 1.33099C5.07475 1.31768 5.11015 1.31102 5.14583 1.31143H7.85417C7.88985 1.31102 7.92525 1.31768 7.95829 1.33099C7.99133 1.34431 8.02135 1.36403 8.04659 1.38898C8.07182 1.41393 8.09175 1.44362 8.10522 1.4763C8.11868 1.50898 8.12541 1.544 8.125 1.57928V2.38285ZM9.20833 12.5805C9.20333 12.7193 9.14406 12.8507 9.04302 12.947C8.94197 13.0434 8.80704 13.0972 8.66667 13.0971H8.64703C8.57591 13.0946 8.50599 13.0783 8.44126 13.0491C8.37653 13.0198 8.31826 12.9782 8.26978 12.9267C8.2213 12.8752 8.18356 12.8147 8.15872 12.7488C8.13388 12.6828 8.12242 12.6127 8.125 12.5423L8.39583 5.04234C8.39837 4.97199 8.41489 4.90282 8.44445 4.83879C8.47401 4.77475 8.51604 4.7171 8.56813 4.66912C8.62022 4.62115 8.68135 4.58379 8.74804 4.55919C8.81473 4.53458 8.88566 4.52321 8.9568 4.52571C9.02793 4.52822 9.09787 4.54456 9.16261 4.57379C9.22736 4.60303 9.28566 4.6446 9.33416 4.69611C9.38267 4.74763 9.42044 4.80809 9.44532 4.87405C9.4702 4.94 9.4817 5.01016 9.47917 5.08051L9.20833 12.5805Z" fill="#F17474"/>
</svg>
